<?xml version="1.0" encoding="utf-8"?>
<!-- Generator: Adobe Illustrator 16.0.0, SVG Export Plug-In . SVG Version: 6.00 Build 0)  -->
<!DOCTYPE svg PUBLIC "-//W3C//DTD SVG 1.1 Tiny//EN" "http://www.w3.org/Graphics/SVG/1.1/DTD/svg11-tiny.dtd">
<svg version="1.1" baseProfile="tiny" id="Text" xmlns="http://www.w3.org/2000/svg" xmlns:xlink="http://www.w3.org/1999/xlink"
	 x="0px" y="0px" width="218.274px" height="141.404px" viewBox="0 0 218.274 141.404" xml:space="preserve">
<g>
	<path d="M113.556,46.787c-0.498-0.527-0.498-1.113,0.028-1.67l2.694-3.193c0.527-0.586,1.113-0.586,1.699,0.06
		c2.813,3.047,6.681,5.098,10.724,5.098c4.364,0,7.616-2.401,7.616-6.356c0-4.57-4.395-6.357-9.463-8.525
		c-6.035-2.578-12.069-5.332-12.069-13.125c0-7.588,5.83-12.158,13.184-12.158c5.244,0,9.669,2.109,13.097,5.215
		c0.557,0.527,0.586,1.113,0.088,1.67l-2.314,2.959c-0.498,0.646-1.113,0.615-1.729,0.029c-3.105-2.813-6.123-3.867-9.199-3.867
		c-3.486,0-6.416,1.904-6.416,5.537c0,4.396,4.365,6.035,9.551,8.203c5.801,2.461,12.07,5.449,12.07,13.711
		c0,8.379-6.533,12.715-14.238,12.715C122.987,53.086,117.334,50.537,113.556,46.787z"/>
	<path d="M150.028,10.986c0-2.314,1.875-4.072,4.103-4.072c2.197,0,4.072,1.758,4.072,4.072c0,2.227-1.875,4.043-4.072,4.043
		C151.903,15.029,150.028,13.213,150.028,10.986z M150.851,51.299V22.676c0-0.762,0.438-1.2,1.2-1.2h4.103
		c0.791,0,1.201,0.438,1.201,1.2v28.623c0,0.791-0.41,1.201-1.201,1.201h-4.103C151.289,52.5,150.851,52.09,150.851,51.299z"/>
	<path d="M164.209,51.006l11.017-13.213c0.469-0.586,0.469-1.084,0-1.67l-11.017-13.154c-0.674-0.819-0.321-1.493,0.703-1.493h5.039
		c0.586,0,1.112,0.233,1.493,0.731l7.589,9.287c0.526,0.615,1.143,0.615,1.67,0l7.646-9.346c0.353-0.469,0.879-0.674,1.494-0.674
		h5.039c1.025,0,1.348,0.674,0.703,1.493L184.54,36.152c-0.469,0.586-0.469,1.055,0,1.67l11.045,13.184
		c0.645,0.82,0.322,1.494-0.703,1.494h-5.068c-0.586,0-1.112-0.233-1.494-0.731l-7.559-9.229c-0.527-0.615-1.143-0.615-1.67,0
		l-7.617,9.287c-0.381,0.469-0.879,0.674-1.494,0.674h-5.067C163.888,52.5,163.535,51.826,164.209,51.006z"/>
	<path d="M2.08,123.123l16.904-42.715c0.234-0.645,0.732-0.908,1.377-0.908h5.361c0.674,0,1.143,0.265,1.377,0.908l16.934,42.715
		c0.352,0.851-0.029,1.377-0.908,1.377h-4.658c-0.674,0-1.143-0.321-1.377-0.967l-3.018-7.793c-0.234-0.645-0.703-0.967-1.348-0.967
		H13.447c-0.674,0-1.143,0.322-1.377,0.967l-3.047,7.793C8.76,124.178,8.32,124.5,7.646,124.5H2.988
		C2.109,124.5,1.729,123.973,2.08,123.123z M29.941,108.68c0.879,0,1.26-0.527,0.967-1.377l-7.09-18.253
		c-0.381-0.995-1.143-0.995-1.553,0l-7.061,18.253c-0.293,0.85,0.059,1.377,0.967,1.377H29.941z"/>
	<path d="M48.896,121.717c-0.674-0.438-0.762-1.024-0.352-1.67l1.787-2.959c0.41-0.674,0.996-0.731,1.67-0.264
		c2.314,1.611,5.42,2.871,8.32,2.871c3.105,0,5.186-1.377,5.186-3.867c0-2.783-3.076-3.633-6.621-4.717
		c-4.424-1.377-9.492-2.959-9.492-9.053c0-6.123,5.273-9.17,11.309-9.17c3.311,0,6.592,0.879,9.404,2.52
		c0.674,0.41,0.791,0.996,0.322,1.611l-1.816,2.666c-0.439,0.614-0.996,0.731-1.67,0.321c-2.197-1.317-4.6-1.934-6.563-1.934
		c-2.783,0-4.746,1.201-4.746,3.369c0,2.666,3.516,3.428,7.266,4.57c4.307,1.317,9.023,3.135,9.023,9.315
		c0,6.357-4.863,9.756-11.631,9.756C55.752,125.086,51.738,123.563,48.896,121.717z"/>
	<path d="M79.16,123.299V80.701c0-0.791,0.439-1.201,1.201-1.201h3.984c0.762,0,1.201,0.41,1.201,1.201v15.088
		c0,1.055,0.557,1.201,1.289,0.439c1.992-2.168,4.717-3.34,8.027-3.34c6.739,0,11.573,4.276,11.573,12.743v17.666
		c0,0.791-0.439,1.201-1.201,1.201h-3.955c-0.791,0-1.201-0.41-1.201-1.201V106.57c0-5.978-3.135-8.027-7.061-8.027
		c-4.277,0-7.441,2.695-7.471,8.174v16.582c0,0.791-0.439,1.201-1.201,1.201H80.36C79.6,124.5,79.16,124.09,79.16,123.299z"/>
</g>
</svg>
